HIERARCHY
ROOT Hips
{
  OFFSET -85.5979 91.3369 90.3784
  CHANNELS 6 Xposition Yposition Zposition Zrotation Xrotation Yrotation
  JOINT RightUpLeg
  {
    OFFSET -8.9458 -8.66707 0.101652
    CHANNELS 3 Zrotation Xrotation Yrotation
    JOINT RightLeg
    {
      OFFSET 0 -44.4227 1.3727
      CHANNELS 3 Zrotation Xrotation Yrotation
      JOINT RightFoot
      {
        OFFSET 0.253549 -42.0924 -1.46059
        CHANNELS 3 Zrotation Xrotation Yrotation
        JOINT RightToes
        {
          OFFSET 0.04 -4.41509 8.4991
          CHANNELS 3 Zrotation Xrotation Yrotation
          End Site
          {
            OFFSET -0.08 -0.137448 9.77979
          }
        }
      }
    }
  }
  JOINT Spine
  {
    OFFSET 0 11.8905 0
    CHANNELS 3 Zrotation Xrotation Yrotation
    JOINT Spine1
    {
      OFFSET 0 25.6574 0.127663
      CHANNELS 3 Zrotation Xrotation Yrotation
      JOINT HEad
      {
        OFFSET 0 8.73416 0.011341
        CHANNELS 3 Zrotation Xrotation Yrotation
        End Site
        {
          OFFSET -0.29 12.7742 2.51395
        }
      }
      JOINT LeftShoulder1
      {
        OFFSET 8.99 -0.362252 -0.22
        CHANNELS 3 Zrotation Xrotation Yrotation
        JOINT LeftArm
        {
          OFFSET 10.2827 -0.00338 0.322123
          CHANNELS 3 Zrotation Xrotation Yrotation
          JOINT LeftForeArm
          {
            OFFSET 32.7669 0.099144 -1.42434
            CHANNELS 3 Zrotation Xrotation Yrotation
            JOINT LeftHand
            {
              OFFSET 27.5643 0.085362 1.02216
              CHANNELS 3 Zrotation Xrotation Yrotation
              End Site
              {
                OFFSET 16.7443 -0.6 1.50291
              }
            }
          }
        }
      }
      JOINT RightShoulder
      {
        OFFSET -8.99 -0.362252 -0.22
        CHANNELS 3 Zrotation Xrotation Yrotation
        JOINT RightArm
        {
          OFFSET -10.2827 -0.00338 0.322123
          CHANNELS 3 Zrotation Xrotation Yrotation
          JOINT RightForeArm
          {
            OFFSET -32.8971 0.099144 -1.42434
            CHANNELS 3 Zrotation Xrotation Yrotation
            JOINT RightHand
            {
              OFFSET -27.4921 0.085362 1.02216
              CHANNELS 3 Zrotation Xrotation Yrotation
              End Site
              {
                OFFSET -16.6312 -0.6 1.50291
              }
            }
          }
        }
      }
    }
  }
  JOINT LeftUpLeg
  {
    OFFSET 8.9458 -8.66707 0.101652
    CHANNELS 3 Zrotation Xrotation Yrotation
    JOINT LeftLeg
    {
      OFFSET 0 -44.4227 1.3727
      CHANNELS 3 Zrotation Xrotation Yrotation
      JOINT LeftFoot
      {
        OFFSET -0.253549 -42.0924 -1.46059
        CHANNELS 3 Zrotation Xrotation Yrotation
        JOINT LeftToes
        {
          OFFSET -0.04 -4.41509 8.4991
          CHANNELS 3 Zrotation Xrotation Yrotation
          End Site
          {
            OFFSET 0.08 -0.047448 9.77979
          }
        }
      }
    }
  }
}
MOTION
Frames:	12
Frame Time:	0.0166667
-125.589 84.32 102.034 1.3741 4.33459 -157.269 -12.3252 -36.6395 3.55955 -7.34414 23.6184 14.8168 55.8054 36.5426 -23.0653 -51.2366 -49.0025 5.47458 -0.745283 4.96974 -8.73971 3.27685 10.7102 -17.3255 -0.355808 -5.43407 12.9331 7.95139e-016 0 -0 -63.0402 -29.8523 -81.4202 8.80939 36.6459 -96.7796 3.24071 10.0522 11.5503 30.9831 -2.73332 -10.6283 59.6941 -10.1293 52.3822 -9.38847 28.1049 139.06 -8.89643 9.75693 -2.28211 21.6039 21.4968 -10.788 -14.5976 25.8114 45.4968 11.4908 -0.283716 -0.757421 40.6594 -39.4694 25.2646 
-126.938 84.6663 101.523 3.61659 2.91437 -159.598 -9.12742 -37.0474 4.21979 -9.39824 20.417 15.5348 56.4441 36.3872 -23.2859 -50.0805 -48.6368 6.48889 -0.165573 4.327 -11.2072 5.51857 9.47275 -21.927 0.529215 -4.97873 18.9783 -3.97569e-016 0 3.18055e-015 -48.2335 -28.606 -84.5936 8.05006 28.8552 -72.7713 1.42753 9.9277 9.64216 29.3859 -2.18468 -9.29926 65.1221 -11.4156 54.3286 -10.8338 27.5151 142.266 -1.4133 9.93715 -10.5729 21.2979 21.2157 -9.82697 -14.4344 25.6696 42.9603 8.46694 -2.3497 -0.3958 37.8577 -38.0296 23.1488 
-128.152 85.0732 100.914 5.25474 1.44014 -160.732 -7.56647 -37.2956 5.95829 -9.61041 18.3251 14.2448 54.3997 36.5563 -22.4086 -49.4893 -47.7589 6.07744 0.360406 3.99634 -13.2096 6.81054 8.67347 -25.8008 1.60778 -4.60859 22.9729 3.53113e-031 3.18055e-015 -6.36111e-015 -21.4713 -23.7109 -83.0944 11.8901 11.6932 -45.8306 -2.96037 9.64625 12.1567 28.2273 -1.75531 -8.14159 70.4756 -12.9273 55.8939 -11.4628 27.9034 143.808 3.63461 9.51218 -14.6291 21.4524 20.6294 -8.67605 -14.0845 25.8459 37.7174 4.86164 -4.27883 -0.133952 35.7869 -36.9397 21.4741 
-129.253 85.5948 100.286 6.08166 0.0262473 -161.024 -7.76373 -37.5112 8.37986 -8.24956 17.4443 11.5492 49.9538 36.5752 -20.3606 -48.5013 -45.9451 4.88104 0.606186 3.94075 -14.64 7.04818 8.38118 -28.6405 2.57516 -4.85081 24.9405 1.59028e-015 -1.59028e-015 -0 1.13602 -20.7448 -84.1279 14.7512 3.82819 -21.7582 -7.59947 8.89822 18.1297 27.8253 -1.50811 -7.38613 74.1632 -13.6229 57.0435 -11.6043 28.8786 143.627 4.59012 9.41769 -14.831 21.5485 19.8989 -7.26772 -13.2882 26.3071 30.0079 1.36355 -5.58531 -0.00665659 34.2984 -36.1539 20.1788 
-130.245 86.1758 99.6308 6.12002 -1.25435 -161.025 -9.13435 -37.7693 10.9543 -6.03657 17.4448 8.55628 44.2691 36.1644 -17.6459 -46.794 -43.3522 3.47614 0.595782 4.06262 -15.3703 6.51831 8.48372 -30.1663 3.13222 -5.90415 25.1124 7.95139e-016 -1.59028e-015 -0 15.9398 -20.3286 -86.439 13.6156 4.55288 -6.11197 -12.643 7.55847 24.2767 27.7066 -1.35761 -6.89538 76.0323 -13.6669 57.8074 -11.4009 30.1027 142.216 2.30023 9.69385 -12.2335 21.2498 19.1429 -5.91057 -12.0052 27.0224 20.6525 -1.52425 -5.82657 0.0441279 33.0261 -35.4987 18.9663 
-131.096 86.7038 98.9031 5.50912 -2.29399 -161.171 -10.8423 -38.0072 13.0215 -4.00778 17.8716 6.31068 39.2395 35.7208 -15.3226 -45.2695 -41.0149 2.09073 0.440901 4.26115 -15.2693 5.65632 8.80679 -30.1252 3.07622 -7.49912 23.622 2.38542e-015 3.18055e-015 -3.18055e-015 23.0197 -20.6234 -88.4885 12.3908 8.50696 -0.681016 -17.3059 6.00882 28.6633 27.0474 -1.1942 -6.43775 77.0716 -14.044 58.4541 -10.8095 31.5667 140.307 -1.18418 9.91498 -8.05267 20.5877 18.5255 -5.18428 -10.5263 27.8606 10.8177 -3.75951 -5.17376 0.0976268 31.2332 -34.6727 16.9263 
-131.756 87.1312 98.1601 4.38741 -2.90566 -161.448 -12.4287 -37.9342 13.9623 -2.99839 18.3008 5.21549 36.5173 36.025 -14.289 -45.1748 -40.0863 0.785483 0.0991658 4.46122 -14.385 4.74383 9.26601 -28.5011 2.5057 -8.95264 20.5421 7.95139e-016 -3.18055e-015 -3.18055e-015 22.8928 -20.33 -90.0014 15.3743 12.9573 -4.87118 -19.7315 5.00244 31.1455 25.4532 -0.99288 -5.9545 78.231 -15.6974 59.179 -9.74837 33.3241 138.588 -4.00736 9.8834 -3.71804 19.9476 18.1486 -5.5638 -9.24845 28.584 1.85006 -5.6397 -4.13448 0.183675 28.928 -33.84 13.5487 
-132.211 87.4308 97.5151 2.9891 -2.95215 -161.564 -13.7731 -37.4674 13.7388 -3.06112 18.8322 4.96286 36.3096 37.129 -14.5709 -46.6705 -40.6894 -0.3614 -0.362549 4.72317 -12.9235 3.87629 9.92763 -25.7351 1.85349 -9.63231 16.2268 -1.59028e-015 0 -3.18055e-015 15.1364 -19.2348 -91.6028 22.106 16.5694 -17.3306 -18.4833 5.27676 31.3239 23.3179 -0.822806 -5.60903 79.5529 -18.7156 59.9642 -8.31212 35.0288 137.468 -5.30993 9.74753 -0.442955 19.8553 17.8993 -7.10289 -8.38073 28.9975 -4.67752 -7.43119 -2.87233 0.313508 27.8973 -34.3327 10.107 
-132.5 87.6486 97.0006 1.58073 -2.50203 -161.121 -15.0561 -36.6641 12.8473 -3.50198 19.7132 4.65283 37.3771 38.4033 -15.469 -48.7656 -41.9535 -1.26621 -0.699077 5.16785 -11.2923 3.11413 10.8895 -22.5663 1.53326 -9.56149 11.308 7.95139e-016 3.18055e-015 -3.18055e-015 0.0487871 -17.5849 -93.4213 28.3859 19.3639 -36.4316 -14.7714 6.42558 29.6445 21.532 -0.78059 -5.69719 80.4124 -22.3187 60.8803 -6.86136 36.0677 137.039 -5.19265 9.68817 1.20204 20.7114 17.5694 -9.37371 -7.88309 28.621 -7.48801 -8.8382 -0.717891 0.525801 30.3753 -37.7122 9.08528 
-132.689 87.7981 96.6233 0.314781 -1.82795 -159.988 -16.5272 -35.7807 11.8376 -3.55764 21.1258 3.56585 38.1881 39.3498 -16.1645 -50.4908 -43.0186 -1.94106 -0.722674 5.84502 -9.8237 2.54152 12.1675 -19.6505 1.53587 -9.39994 6.30447 -7.95139e-016 0 -1.59028e-015 -20.0798 -15.9828 -94.3839 31.7619 23.6523 -60.1331 -11.7642 7.25068 28.3864 20.7431 -0.920364 -6.4324 80.6401 -25.6339 62.3235 -5.72997 36.3086 137.206 -4.12387 9.73675 1.28067 22.5349 16.7394 -11.6109 -7.76472 27.4504 -5.91144 -8.97442 2.42281 0.76026 36.9271 -42.9565 12.7067 
-132.833 87.871 96.3231 -0.766673 -1.24119 -158.321 -18.2597 -35.0361 10.945 -2.96098 22.9778 1.64957 37.918 39.9141 -16.2417 -51.7105 -43.619 -2.62234 -0.425083 6.70989 -8.65651 2.19049 13.7053 -17.2981 1.61986 -9.85455 1.40876 1.98785e-016 -3.18055e-015 -0 -42.3919 -15.8505 -93.6194 33.7048 30.5795 -86.1131 -10.5834 7.41186 29.2745 20.9818 -1.23946 -7.76966 80.9111 -28.2933 64.7929 -4.95396 36.226 137.801 -2.54927 9.82885 0.251674 25.0638 15.0384 -13.1256 -8.19494 25.949 -0.260124 -7.25574 4.82366 0.745087 44.026 -46.0413 19.4681 
-132.97 87.8284 96.0309 -1.64367 -0.930219 -156.38 -20.1388 -34.5012 10.1723 -1.91507 24.9837 -0.695176 36.5509 40.2696 -15.7385 -52.9399 -43.9512 -3.68011 0.0498579 7.67806 -7.72904 1.99222 15.4235 -15.449 1.76581 -11.2784 -3.38275 -2.98177e-016 0 -1.98785e-016 -60.1572 -17.8147 -90.4791 35.0723 34.7304 -108.392 -11.0632 7.07861 31.3746 21.7571 -1.66154 -9.36065 82.1168 -30.4968 68.3646 -4.4508 36.213 138.712 -0.948274 9.89456 -1.19881 27.8712 12.2826 -13.5589 -9.30778 24.8847 7.74372 -4.70463 3.95976 0.437107 44.2747 -44.5565 22.2385 
